<svg width="49" height="42" viewBox="0 0 49 42" fill="none" xmlns="http://www.w3.org/2000/svg">
<g id="brandico:vimeo" clip-path="url(#clip0_6_27)">
<path id="Vector" d="M0.0242652 32.2839C0.243901 27.5576 3.57484 21.0863 10.0171 12.8698C16.679 4.28985 22.316 -0.000138472 26.9281 -0.000138472C29.7832 -0.000138472 32.199 2.61748 34.1756 7.85273L38.1289 22.2497C39.593 27.4849 41.167 30.1025 42.8508 30.1025C43.2168 30.1025 44.498 29.339 46.6942 27.8121L49.0002 30.7569C46.5844 32.8656 44.2051 34.9742 41.8625 37.0828C38.6414 39.8459 36.2255 41.3001 34.6149 41.4455C30.8082 41.8091 28.4655 39.2278 27.587 33.7018C26.6353 27.7394 25.9765 24.0311 25.6104 22.5768C24.5123 17.6324 23.3044 15.1602 21.9867 15.1602C20.9617 15.1602 19.4244 16.7599 17.3746 19.9592C15.3247 23.1585 14.2266 25.5943 14.0802 27.2667C13.7874 30.0298 14.8855 31.4113 17.3746 31.4113C18.5459 31.4113 19.7538 31.1568 20.9983 30.6478C18.5825 38.428 13.9704 42.209 7.16209 41.9908C2.11075 41.8454 -0.2685 38.6097 0.0243478 32.2838L0.0242652 32.2839Z" fill="#00AB55"/>
</g>
<defs>
<clipPath id="clip0_6_27">
<rect width="49" height="42" fill="white" transform="matrix(-1 0 0 -1 49 42)"/>
</clipPath>
</defs>
</svg>
