<svg width="60" height="60" viewBox="0 0 60 60" fill="none" xmlns="http://www.w3.org/2000/svg">
<g id="api_921522 1" clip-path="url(#clip0_50_337)">
<g id="Group">
<path id="Vector" d="M2.90631 0.17578C2.19147 0.374998 1.6524 0.703123 1.07818 1.33594C0.480528 1.99219 0.293028 2.35547 0.105528 3.25781C-0.0585344 4.05469 0.0703719 5.09765 0.433653 5.77734C0.668028 6.24609 1.47662 7.10156 1.94537 7.39453C2.87115 7.96875 4.18365 8.10937 5.20318 7.74609L5.836 7.52344L8.03912 9.75C9.25787 10.9687 10.3946 12.0469 10.5704 12.1406C11.086 12.4102 11.543 12.3516 11.9415 11.9414C12.3516 11.543 12.4102 11.0859 12.1407 10.5703C12.0469 10.3945 10.9688 9.25781 9.73834 8.03906L7.51178 5.8125L7.68756 5.41406C8.06256 4.5 8.00397 3.10547 7.53522 2.17969C7.30084 1.72265 6.50397 0.867186 6.0235 0.574217C5.15631 0.046874 3.94928 -0.117188 2.90631 0.17578ZM4.87506 2.63672C5.5899 3.10547 5.82428 4.0664 5.39068 4.78125C4.72272 5.88281 3.24615 5.88281 2.57818 4.78125C1.72272 3.375 3.49225 1.72265 4.87506 2.63672Z" fill="black"/>
<path id="Vector_2" d="M29.5898 0.105469C29.4609 0.164062 29.25 0.328125 29.1211 0.46875C28.8984 0.714844 28.8867 0.914062 28.8516 3.52734L28.8164 6.32812H27.5625C26.1445 6.32812 25.6172 6.52734 25.4766 7.11328C25.4297 7.28906 25.207 8.16797 24.9727 9.07031L24.5508 10.6875L23.4961 11.1328C22.9219 11.3672 21.9375 11.7773 21.3164 12.0352L20.1914 12.5039L18.5625 11.5312C16.1719 10.0898 16.6055 9.94922 13.2773 13.2773C9.94922 16.6055 10.0898 16.1719 11.5312 18.5625L12.5039 20.1914L12.0352 21.3164C11.7773 21.9375 11.3672 22.9102 11.1328 23.4961L10.6875 24.5508L9.07031 24.9727C8.16797 25.207 7.28906 25.4297 7.11328 25.4766C6.52734 25.6172 6.32812 26.1445 6.32812 27.5625V28.8164L3.50391 28.8516L0.679688 28.8867L0.339844 29.2734C-0.105469 29.7656 -0.105469 30.2344 0.339844 30.7266L0.679688 31.1133L3.50391 31.1484L6.32812 31.1836V32.4375C6.32812 33.8555 6.52734 34.3828 7.11328 34.5234C7.28906 34.5703 8.16797 34.793 9.07031 35.0273L10.6875 35.4492L11.1328 36.5039C11.3672 37.0781 11.7773 38.0625 12.0352 38.6836L12.5039 39.8086L11.5312 41.4375C10.0898 43.8281 9.94922 43.3945 13.2773 46.7227C16.6055 50.0508 16.1719 49.9102 18.5625 48.4688L20.1914 47.4961L21.3164 47.9648C21.9375 48.2227 22.9219 48.6328 23.4961 48.8672L24.5508 49.3125L24.9727 50.9297C25.207 51.832 25.4297 52.7109 25.4766 52.8867C25.6172 53.4727 26.1445 53.6719 27.5625 53.6719H28.8164L28.8516 56.4844L28.8867 59.2969L29.2148 59.6133C29.6602 60.0586 30.3398 60.0586 30.7852 59.6133L31.1133 59.2969L31.1484 56.4844L31.1836 53.6719H32.4375C33.8555 53.6719 34.3828 53.4727 34.5234 52.8867C34.5703 52.7109 34.793 51.832 35.0273 50.9297L35.4492 49.3125L36.5039 48.8672C37.0898 48.6328 38.0625 48.2227 38.6836 47.9648L39.8086 47.4961L41.4375 48.4688C43.8281 49.9102 43.3945 50.0508 46.7227 46.7227C50.0508 43.3945 49.9102 43.8281 48.4688 41.4375L47.4961 39.8086L47.9648 38.6836C48.2227 38.0625 48.6328 37.0781 48.8672 36.5039L49.2891 35.4492L50.9297 35.0273C51.8203 34.793 52.7109 34.5703 52.8867 34.5234C53.4727 34.3828 53.6719 33.8555 53.6719 32.4375V31.1836L56.4844 31.1484L59.2969 31.1133L59.6133 30.7852C60.0586 30.3398 60.0586 29.6602 59.6133 29.2031L59.2969 28.8867L56.4844 28.8516L53.6719 28.8164V27.5625C53.6719 26.1445 53.4727 25.6172 52.8867 25.4766C52.7109 25.4297 51.8203 25.207 50.9297 24.9727L49.2891 24.5508L48.8672 23.4961C48.6328 22.9102 48.2227 21.9375 47.9648 21.3164L47.4961 20.1914L48.4688 18.5625C49.9102 16.1719 50.0508 16.6055 46.7227 13.2773C43.3945 9.94922 43.8281 10.0898 41.4375 11.5312L39.8086 12.5039L38.6836 12.0352C38.0625 11.7773 37.0898 11.3672 36.5039 11.1328L35.4492 10.6875L35.1797 9.65625C34.4062 6.66797 34.4414 6.78516 34.0547 6.55078C33.7617 6.375 33.457 6.32812 32.4375 6.32812H31.1836L31.1484 3.51562L31.1133 0.703125L30.8203 0.410156C30.4922 0.09375 29.9531 -0.046875 29.5898 0.105469ZM32.9297 10.3359C33.2461 11.6367 33.3984 12.082 33.6328 12.3047C34.0664 12.7383 39.668 15.0469 40.0781 14.9531C40.2539 14.918 41.0273 14.5195 41.7891 14.0508C42.5625 13.5938 43.2188 13.1953 43.2539 13.1719C43.2891 13.1602 44.1094 13.9336 45.0938 14.918L46.8633 16.6992L45.9844 18.1523C45.5039 18.9492 45.082 19.7461 45.0469 19.9219C44.9531 20.332 47.2617 25.9336 47.6953 26.3672C47.918 26.6016 48.3633 26.7539 49.6641 27.0703L51.3281 27.4688V30V32.5312L49.6641 32.9297C48.3633 33.2461 47.918 33.3984 47.6953 33.6328C47.2617 34.0664 44.9531 39.668 45.0469 40.0781C45.082 40.2539 45.4805 41.0273 45.9492 41.7891C46.4062 42.5625 46.8047 43.2188 46.8281 43.2539C46.8398 43.2891 46.0664 44.1211 45.082 45.0938L43.3008 46.8633L42.7266 46.5117C41.3906 45.6797 40.125 45 39.9023 45C39.4805 45.0117 33.8203 47.4375 33.5742 47.7188C33.4336 47.8945 33.1875 48.6211 32.9414 49.6641L32.5312 51.3281H30H27.4688L27.0703 49.6523C26.7539 48.3633 26.6016 47.918 26.3672 47.6953C25.9336 47.2617 20.332 44.9531 19.9219 45.0469C19.7461 45.082 18.9727 45.4805 18.2109 45.9492C17.4375 46.4062 16.7812 46.8047 16.7461 46.8281C16.7109 46.8398 15.8789 46.0664 14.9062 45.082L13.1367 43.3008L13.4883 42.7266C14.2852 41.4609 15 40.1367 15 39.9375C15 39.5273 12.5508 33.8203 12.2812 33.5742C12.1055 33.4336 11.3672 33.1875 10.3359 32.9414L8.67188 32.5312V30V27.4688L10.3359 27.0586C11.3789 26.8125 12.1055 26.5664 12.2812 26.4258C12.5625 26.1797 14.9883 20.5195 15 20.0977C15 19.875 14.3203 18.6094 13.4883 17.2734L13.1367 16.6992L14.9062 14.918C15.8789 13.9336 16.7109 13.1602 16.7461 13.1719C16.7812 13.1953 17.4375 13.5938 18.2109 14.0508C18.9727 14.5195 19.7461 14.918 19.9219 14.9531C20.332 15.0469 25.9336 12.7383 26.3672 12.3047C26.6016 12.082 26.7539 11.6367 27.0703 10.3359L27.4688 8.67188H30H32.5312L32.9297 10.3359Z" fill="black"/>
<path id="Vector_3" d="M29.5899 15.1055C29.2266 15.2578 28.9453 15.6328 28.875 16.0781C28.7344 16.9102 29.7774 17.5898 30.5625 17.1797C30.9961 16.957 31.1719 16.6641 31.1719 16.1719C31.1719 15.6797 30.9961 15.3867 30.586 15.1758C30.211 14.9883 29.9414 14.9648 29.5899 15.1055Z" fill="black"/>
<path id="Vector_4" d="M34.289 15.9961C33.8203 16.2422 33.6445 16.5117 33.6328 16.9922C33.6328 17.625 33.8906 17.8828 35.2031 18.5039C37.3125 19.5 38.7656 20.6601 40.0898 22.418C43.3476 26.7305 43.4883 32.5078 40.4765 37.0547C37.7812 41.0976 32.8242 43.2539 28.0195 42.4805C21.6328 41.4375 17.0156 35.7305 17.3789 29.3086C17.6367 24.8906 20.2148 20.8711 24.0703 18.8555C24.5859 18.5859 25.125 18.2344 25.2773 18.0703C25.8164 17.4961 25.5117 16.5117 24.7383 16.2773C24.3164 16.1484 24.2109 16.1719 23.4961 16.5C20.6836 17.8242 18 20.4844 16.5234 23.4258C15.164 26.1445 14.6719 29.8476 15.2929 32.8711C16.2304 37.4414 19.2422 41.3906 23.3789 43.4531C25.7929 44.6484 28.9922 45.2109 31.5937 44.8945C35.0976 44.4609 37.9219 43.1367 40.3828 40.7578C45.8437 35.4844 46.5234 27.1172 41.9765 21.0117C40.5586 19.125 38.4492 17.4023 36.2929 16.4062C35.0742 15.8437 34.7226 15.7734 34.289 15.9961Z" fill="black"/>
<path id="Vector_5" d="M23.1445 25.418C23.0156 25.4766 22.8164 25.6172 22.7109 25.7344C22.4062 26.0859 19.4414 33.0586 19.418 33.4805C19.3945 34.2774 20.2383 34.875 20.9766 34.5703C21.4336 34.3828 21.5859 34.1016 22.6172 31.6641C23.0859 30.5625 23.5078 29.6484 23.5547 29.6484C23.6016 29.6484 24.0703 30.6797 24.6094 31.9336C25.1484 33.1875 25.6641 34.2891 25.7812 34.3945C26.4961 35.0391 27.7266 34.4531 27.6914 33.4688C27.668 32.9883 24.668 26.0391 24.3398 25.6992C24.0469 25.3945 23.4961 25.2656 23.1445 25.418Z" fill="black"/>
<path id="Vector_6" d="M29.6484 25.4414C28.9453 25.7109 28.9453 25.7109 28.9453 29.9297V33.7969L29.2617 34.125C29.8945 34.793 31.0312 34.4297 31.2187 33.5039C31.2539 33.293 31.2891 32.8008 31.2891 32.3906V31.6406H31.9336C33.4687 31.6406 34.5352 31.0781 35.0859 29.9883C35.5195 29.1094 35.5195 27.8438 35.0859 26.9649C34.7109 26.2149 33.9375 25.6055 33.1289 25.4297C32.4258 25.2774 30.0469 25.2891 29.6484 25.4414ZM32.8359 27.8555C33.1055 28.0899 33.1172 28.8516 32.8594 29.1094C32.7422 29.2383 32.4609 29.2969 31.9805 29.2969H31.2891V28.4766V27.6563H31.957C32.4023 27.6563 32.6836 27.7149 32.8359 27.8555Z" fill="black"/>
<path id="Vector_7" d="M37.6875 25.4883C37.0312 25.8398 37.043 25.7695 37.0312 29.9063V33.7266L37.3359 34.0898C37.9336 34.8047 39.1172 34.4531 39.3047 33.5039C39.3398 33.293 39.375 31.6406 39.375 29.8008C39.375 26.0273 39.3281 25.7813 38.625 25.4883C38.1211 25.2773 38.1094 25.2773 37.6875 25.4883Z" fill="black"/>
<path id="Vector_8" d="M54.9375 0.175791C54.2226 0.37501 53.6835 0.703135 53.1093 1.33595C52.5468 1.94532 52.3945 2.21485 52.1953 2.98829C51.9726 3.79688 51.996 4.46485 52.2539 5.20314L52.4765 5.83595L50.25 8.03907C49.0312 9.25782 47.9531 10.3945 47.8593 10.5703C47.5781 11.0977 47.6484 11.5781 48.0585 11.9649C48.4687 12.3399 48.9257 12.3984 49.4296 12.1406C49.6054 12.0469 50.7421 10.9688 51.9609 9.75001L54.164 7.52345L54.7968 7.7461C55.8164 8.10939 57.1289 7.96876 58.0546 7.39454C58.5234 7.10157 59.332 6.2461 59.5664 5.77735C59.9296 5.09767 60.0585 4.0547 59.8945 3.25782C59.707 2.35548 59.5195 1.9922 58.9218 1.33595C57.8554 0.175791 56.4257 -0.234365 54.9375 0.175791ZM56.9062 2.63673C57.621 3.10548 57.8554 4.06642 57.4218 4.78126C56.7539 5.88282 55.2773 5.88282 54.6093 4.78126C53.7539 3.37501 55.5234 1.72267 56.9062 2.63673Z" fill="black"/>
<path id="Vector_9" d="M10.4883 47.918C10.3008 48.0352 9.16407 49.1133 7.98047 50.3086L5.83594 52.4766L5.20313 52.2539C4.46485 51.9961 3.79688 51.9727 2.96485 52.1953C2.17969 52.4063 1.67579 52.7227 1.07813 53.3672C0.480473 54.0234 0.292973 54.3867 0.105473 55.2891C-0.175777 56.625 0.269535 57.9375 1.32422 58.9102C1.99219 59.5195 2.35547 59.707 3.25782 59.8945C4.05469 60.0586 5.09766 59.9297 5.77735 59.5664C6.29297 59.3086 7.13672 58.4883 7.44141 57.9609C7.99219 56.9766 8.09766 55.582 7.6875 54.5859L7.51172 54.1875L9.73829 51.9609C10.9688 50.7422 12.0469 49.6055 12.1406 49.4297C12.4102 48.9141 12.3516 48.457 11.9414 48.0586C11.5195 47.625 11.0156 47.5781 10.4883 47.918ZM4.78125 54.6094C5.56641 55.0898 5.84766 56.0625 5.39063 56.8008C4.73438 57.8789 3.31641 57.9023 2.61329 56.8477C1.69922 55.4883 3.38672 53.7539 4.78125 54.6094Z" fill="black"/>
<path id="Vector_10" d="M48.0351 48.0352C47.4609 48.6094 47.625 49.5117 48.3632 49.8633C49.1015 50.2148 49.957 49.6758 49.957 48.8555C49.957 47.8008 48.7734 47.2969 48.0351 48.0352Z" fill="black"/>
<path id="Vector_11" d="M50.9766 50.2383C50.6485 50.3555 50.2852 50.7656 50.2149 51.1055C50.0977 51.6094 50.4141 52.1133 51.5039 53.2031L52.4883 54.1758L52.3125 54.5859C51.9024 55.582 52.0078 56.9766 52.5586 57.9609C52.8633 58.4883 53.7071 59.3086 54.2227 59.5664C54.9024 59.9297 55.9453 60.0586 56.7422 59.8945C57.6446 59.707 58.0078 59.5195 58.6758 58.9102C59.7305 57.9375 60.1758 56.625 59.8946 55.2891C59.7071 54.3867 59.5196 54.0234 58.9219 53.3672C58.3242 52.7227 57.8203 52.4063 57.0352 52.1953C56.2032 51.9727 55.5352 51.9961 54.7969 52.2539L54.1641 52.4766L53.1914 51.4922C52.0196 50.3086 51.5274 50.0391 50.9766 50.2383ZM56.8125 54.6094C57.5977 55.0898 57.8789 56.0625 57.4219 56.8008C56.7657 57.8789 55.3477 57.9023 54.6446 56.8477C53.7305 55.4883 55.418 53.7539 56.8125 54.6094Z" fill="black"/>
</g>
</g>
<defs>
<clipPath id="clip0_50_337">
<rect width="60" height="60" fill="white"/>
</clipPath>
</defs>
</svg>
