<svg width="60" height="60" viewBox="0 0 60 60" fill="none" xmlns="http://www.w3.org/2000/svg">
<g id="code_1906217 1" clip-path="url(#clip0_50_130)">
<g id="Group">
<path id="Vector" d="M0.468775 2.42575C-0.0116934 2.60153 2.53515e-05 1.98044 2.53515e-05 23.3203C2.53515e-05 43.0078 0.0117441 43.8047 0.210963 43.9804C0.410182 44.1679 1.21877 44.1797 9.4219 44.1797C17.9414 44.1797 18.4219 44.1914 18.375 44.3789C18.3399 44.4961 17.9297 45.9726 17.461 47.6601L16.6055 50.7304L14.8828 50.7656C13.3711 50.8008 13.1133 50.8242 12.9024 51.0234C12.6211 51.2812 12.586 51.6562 12.8203 51.9843C12.9844 52.207 13.2539 52.207 26.0391 52.207C33.211 52.207 39.1758 52.1601 39.293 52.1015C39.4805 52.0195 39.4922 52.1133 39.4922 53.4023C39.4922 55.0312 39.6563 55.6289 40.2656 56.3554C40.8047 56.9883 41.4961 57.375 42.3633 57.539C42.8555 57.6328 45.1875 57.6562 50.1563 57.6328L57.2461 57.5976L57.9024 57.2929C58.6758 56.9297 59.3086 56.3086 59.6719 55.5586L59.9414 55.0195V40.3711V25.7226L59.6719 25.2304C59.2735 24.4804 58.7344 23.9297 58.0781 23.5781C57.4922 23.2617 57.4453 23.2617 54.8789 23.2265L52.2656 23.1914V13.0664C52.2656 3.28122 52.2539 2.94138 52.043 2.68356L51.8203 2.40231L26.2266 2.37888C12.1641 2.36716 0.562525 2.39059 0.468775 2.42575ZM50.7422 13.5351V23.1914L46.3828 23.2265C42.1055 23.2617 42 23.2734 41.4727 23.5312C40.8281 23.8476 40.1485 24.5039 39.8086 25.1367C39.5625 25.582 39.5508 25.7812 39.4922 30L39.4336 34.3945L20.4258 34.4297L1.40628 34.4531V19.1601V3.86716H26.0742H50.7422V13.5351ZM57.3985 24.8554C57.7031 25.0078 58.0313 25.3008 58.2188 25.582C58.5117 26.0156 58.5352 26.1797 58.5821 27.3867L58.6172 28.7109H49.7578H40.8985V27.4922C40.8985 25.8047 41.1328 25.289 42.1289 24.832C42.5625 24.6328 43.043 24.6093 49.7344 24.6093C56.7774 24.6093 56.8828 24.6093 57.3985 24.8554ZM58.5938 39.8437V49.5703H49.7461H40.8985V39.8437V30.1172H49.7461H58.5938V39.8437ZM39.4922 39.3164V42.7734H20.4492H1.40628V39.3164V35.8593H20.4492H39.4922V39.3164ZM33.1875 47.4609C33.6914 49.2304 34.1016 50.6953 34.1016 50.707C34.1016 50.7304 30.4922 50.7422 26.086 50.7422H18.0821L18.8321 48.0703C19.2422 46.6054 19.6524 45.1289 19.7578 44.789L19.9336 44.1797L26.1094 44.2031L32.2852 44.2383L33.1875 47.4609ZM39.4688 47.6718L39.4922 51.1054L39.2344 50.9531C39.0586 50.8593 38.3438 50.7773 37.2656 50.7422L35.5781 50.6836L34.6758 47.4961C34.1953 45.7383 33.8203 44.2734 33.8438 44.2383C33.8789 44.2031 35.1563 44.1914 36.668 44.2031L39.4336 44.2383L39.4688 47.6718ZM58.5938 52.7343C58.5938 54.4922 58.4883 54.9843 57.9727 55.5234C57.3867 56.1562 57.6328 56.1328 49.7461 56.1328C42.6446 56.1328 42.3985 56.1211 41.9531 55.8984C41.6719 55.7578 41.3789 55.4648 41.1914 55.1601C40.9102 54.6679 40.8985 54.5625 40.8985 52.875V51.0937H49.7461H58.5938V52.7343Z" fill="black"/>
<path id="Vector_2" d="M26.6719 12.293C26.5313 12.457 26.2149 14.2148 25.418 19.4648C24.8438 23.2969 24.3633 26.6016 24.3516 26.8242C24.3399 27.0937 24.4102 27.2695 24.5508 27.375C24.8438 27.5976 25.3711 27.5859 25.5586 27.3516C25.6758 27.2109 27.8789 13.3594 27.8907 12.6797C27.8907 12.4453 27.4454 12.0703 27.1524 12.0703C27 12.0703 26.7891 12.1641 26.6719 12.293Z" fill="black"/>
<path id="Vector_3" d="M22.8516 14.3789C22.4415 14.5429 16.1719 19.3828 16.1016 19.5937C16.0665 19.7109 16.1133 19.9453 16.2188 20.0976C16.3243 20.25 17.836 21.457 19.5938 22.7812C23.004 25.3593 23.2383 25.4882 23.6251 24.9023C23.9883 24.3515 23.8243 24.164 20.9298 21.9961C19.418 20.8593 18.1524 19.8867 18.1173 19.8281C18.0938 19.7812 19.2774 18.8203 20.754 17.6953C22.2423 16.582 23.5313 15.5507 23.6251 15.4218C23.8594 15.082 23.836 14.9179 23.4962 14.5898C23.2032 14.2851 23.1446 14.2734 22.8516 14.3789Z" fill="black"/>
<path id="Vector_4" d="M28.8281 14.4492C28.6055 14.5547 28.5234 14.707 28.5 15.0234L28.4648 15.4453L31.2891 17.5781C32.8359 18.7617 34.0898 19.7578 34.0781 19.8164C34.0547 19.8633 32.9062 20.7539 31.5234 21.7969C30.1406 22.8398 28.8867 23.8008 28.7461 23.9414C28.2422 24.3867 28.5 25.1953 29.1328 25.1953C29.3203 25.1953 30.5156 24.3633 32.6953 22.7109C36.0234 20.2031 36.3047 19.9336 36.0117 19.4648C35.8945 19.2539 29.3555 14.2969 29.2148 14.2969C29.1562 14.2969 28.9922 14.3672 28.8281 14.4492Z" fill="black"/>
<path id="Vector_5" d="M46.875 25.8984C46.5937 26.1797 46.5703 26.6367 46.8164 26.8828C47.0976 27.164 47.5898 27.1992 50.0742 27.164C52.3593 27.1289 52.4062 27.1289 52.6289 26.8476C52.9218 26.4844 52.9101 26.2969 52.5586 25.957L52.2773 25.664H49.6875C47.2617 25.664 47.0976 25.6758 46.875 25.8984Z" fill="black"/>
<path id="Vector_6" d="M41.9062 32.2383C41.5078 32.543 41.5078 32.9648 41.9062 33.2695C42.1641 33.4688 42.3867 33.5156 43.125 33.5156C44.1445 33.5156 44.6484 33.2695 44.6484 32.7539C44.6484 32.2383 44.1445 31.9922 43.125 31.9922C42.3867 31.9922 42.1641 32.0391 41.9062 32.2383Z" fill="black"/>
<path id="Vector_7" d="M45.8555 32.1093C45.5625 32.2265 45.4101 32.6718 45.5156 33.0234C45.668 33.5039 45.9844 33.5273 51.8203 33.4921C56.8476 33.457 57.4336 33.4335 57.6094 33.2578C57.8906 32.9882 57.8555 32.4609 57.5391 32.2031C57.293 32.0039 56.918 31.9921 51.6914 32.0039C48.6211 32.0039 45.9961 32.0507 45.8555 32.1093Z" fill="black"/>
<path id="Vector_8" d="M41.8359 35.7422C41.5547 36.0234 41.543 36.3047 41.7891 36.6562C41.9531 36.8906 42.0586 36.9141 43.125 36.9141C44.1914 36.9141 44.2969 36.8906 44.4609 36.6562C44.707 36.3047 44.6953 36.0234 44.4141 35.7422C44.2148 35.543 44.0273 35.5078 43.125 35.5078C42.2227 35.5078 42.0352 35.543 41.8359 35.7422Z" fill="black"/>
<path id="Vector_9" d="M45.6679 35.7188C45.4101 36 45.4219 36.4805 45.6797 36.7148C45.8789 36.8906 46.4648 36.9141 51.6562 36.9141C56.7304 36.9141 57.4219 36.8906 57.5859 36.7266C57.8789 36.4453 57.8672 36.0469 57.5742 35.707C57.3984 35.5195 56.9648 35.5078 51.6211 35.5078C46.1836 35.5078 45.8437 35.5195 45.6679 35.7188Z" fill="black"/>
<path id="Vector_10" d="M41.8008 39.3516C41.5312 39.6445 41.5547 40.0312 41.8359 40.3125C42.0351 40.5117 42.2226 40.5469 43.0195 40.5469C44.2148 40.5469 44.6367 40.3477 44.6484 39.7734C44.6484 39.2812 44.3086 39.1406 43.1015 39.1406C42.1758 39.1406 41.9531 39.1758 41.8008 39.3516Z" fill="black"/>
<path id="Vector_11" d="M45.6679 39.3516C45.3984 39.6445 45.4218 40.0312 45.7031 40.3125C45.9258 40.5352 46.0898 40.5469 51.6093 40.5469C56.9062 40.5469 57.2929 40.5352 57.539 40.3359C57.6914 40.207 57.8086 39.9961 57.8086 39.8086C57.8086 39.1172 58.0429 39.1406 51.6797 39.1406C46.1836 39.1406 45.8437 39.1523 45.6679 39.3516Z" fill="black"/>
<path id="Vector_12" d="M41.836 42.8906C41.543 43.1836 41.5313 43.6172 41.8126 43.8633C41.9884 44.0156 42.2696 44.0625 43.1602 44.0625C44.1915 44.0625 44.297 44.0391 44.461 43.8047C44.7071 43.4531 44.6954 43.1719 44.4141 42.8906C44.2149 42.6914 44.0274 42.6562 43.1251 42.6562C42.2227 42.6562 42.0352 42.6914 41.836 42.8906Z" fill="black"/>
<path id="Vector_13" d="M45.7032 42.8906C45.4102 43.1836 45.3985 43.6172 45.6798 43.8633C45.879 44.0391 46.4649 44.0625 51.6329 44.0625C56.2266 44.0625 57.422 44.0273 57.586 43.9102C57.8673 43.7109 57.8673 43.1836 57.5977 42.8906C57.3868 42.668 57.1993 42.6562 51.6563 42.6562C46.0899 42.6562 45.9259 42.668 45.7032 42.8906Z" fill="black"/>
<path id="Vector_14" d="M41.7891 46.5469C41.543 46.8984 41.5547 47.1797 41.8359 47.4609C42.0352 47.6602 42.2227 47.6953 43.125 47.6953C44.0273 47.6953 44.2148 47.6602 44.4141 47.4609C44.6953 47.1797 44.707 46.8984 44.4609 46.5469C44.2969 46.3125 44.1914 46.2891 43.125 46.2891C42.0586 46.2891 41.9531 46.3125 41.7891 46.5469Z" fill="black"/>
<path id="Vector_15" d="M45.6679 46.5C45.3984 46.793 45.4218 47.1797 45.7031 47.4609C45.9258 47.6836 46.0898 47.6953 51.6562 47.6953C57.1992 47.6953 57.3867 47.6836 57.5976 47.4609C57.8672 47.168 57.8672 46.6406 57.5859 46.4414C57.4218 46.3242 56.2148 46.2891 51.6211 46.2891C46.1836 46.2891 45.8437 46.3008 45.6679 46.5Z" fill="black"/>
<path id="Vector_16" d="M48.7969 51.6679C48.0469 52.0078 47.6602 52.6171 47.6016 53.4843C47.5547 54.3398 47.7774 54.832 48.4336 55.3593C48.7735 55.6288 49.0196 55.7226 49.5469 55.7578C50.4258 55.8163 51.0821 55.5117 51.5274 54.8203C51.9727 54.1523 51.9844 53.0859 51.5742 52.4765C50.9297 51.539 49.7813 51.1992 48.7969 51.6679ZM50.2149 53.1445C50.3789 53.2968 50.5078 53.496 50.5078 53.5898C50.5078 53.8945 50.0274 54.3749 49.7344 54.3749C49.3711 54.3749 48.9844 53.9882 48.9844 53.6132C48.9844 53.2617 49.3594 52.8515 49.6875 52.8515C49.8282 52.8515 50.0625 52.9804 50.2149 53.1445Z" fill="black"/>
</g>
</g>
<defs>
<clipPath id="clip0_50_130">
<rect width="60" height="60" fill="white"/>
</clipPath>
</defs>
</svg>
