<svg width="60" height="60" viewBox="0 0 60 60" fill="none" xmlns="http://www.w3.org/2000/svg">
<g id="development_3623640 1">
<g id="Group">
<path id="Vector" d="M14.0039 3.14062C13.0898 3.45703 12.3867 3.91406 11.7422 4.6289C11.0508 5.39062 10.6172 6.23437 10.4414 7.19531C10.2656 8.17968 10.2656 51.8203 10.4414 52.8047C10.7344 54.4219 11.8125 55.8164 13.3359 56.5664L14.2266 57.0117H29.4023H44.5898L45.3867 56.6367C47.0391 55.8516 48.1641 54.3047 48.3984 52.5C48.5508 51.3164 48.5508 8.67187 48.3984 7.51171C48.1641 5.70703 47.0977 4.21875 45.4805 3.42187L44.6016 2.98828L29.6016 2.96484C15.5977 2.9414 14.5547 2.95312 14.0039 3.14062ZM43.8164 4.10156C45.2227 4.33593 46.3711 5.20312 46.9336 6.48046C47.2266 7.125 47.2617 7.34765 47.2734 8.49609L47.2852 9.78515L29.3906 9.82031L11.4844 9.84375V8.74218C11.4844 7.19531 11.7773 6.3164 12.5625 5.44921C13.2422 4.69921 14.0156 4.26562 14.9062 4.11328C15.8203 3.96093 42.8906 3.96093 43.8164 4.10156ZM47.3438 28.5937V46.1719H43.4414C40.5586 46.1719 39.5039 46.207 39.3984 46.3125C39.1992 46.5117 39.2227 46.875 39.457 47.1328C39.6328 47.332 39.9141 47.3437 43.5 47.3437H47.3438V48.1641V48.9844H29.4141H11.4844V48.1641V47.3437H15.3047C17.707 47.3437 19.1953 47.2969 19.3477 47.2266C19.6055 47.0859 19.6523 46.5352 19.4297 46.3125C19.3242 46.207 18.2695 46.1719 15.3867 46.1719H11.4844V28.5937V11.0156H29.4141H47.3438V28.5937ZM47.2734 51.5273C47.2617 52.7578 47.2383 52.8867 46.8867 53.6016C46.4297 54.5273 45.5977 55.3125 44.6719 55.6875L44.0039 55.957L29.9414 55.9922C20.5078 56.0156 15.6211 55.9805 15.082 55.8984C14.0156 55.7344 13.2891 55.3477 12.5625 54.5508C11.7773 53.6836 11.4844 52.8047 11.4844 51.2578V50.1562L29.3906 50.1797L47.2852 50.2148L47.2734 51.5273Z" fill="black"/>
<path id="Vector_2" d="M26.6836 6.53906C26.4258 6.82031 26.4375 7.06641 26.6953 7.30078C26.8828 7.47656 27.2578 7.5 29.4492 7.5H31.9922L32.1797 7.20703C32.3554 6.9375 32.3554 6.89062 32.1797 6.62109L31.9922 6.32812H29.4258C27.1054 6.32812 26.8594 6.35156 26.6836 6.53906Z" fill="black"/>
<path id="Vector_3" d="M28.0077 13.418C25.1718 14.0508 23.0038 16.3711 22.5937 19.2188C22.4296 20.3086 22.5468 20.7422 23.0156 20.7422C23.414 20.7422 23.6718 20.4492 23.6718 19.9805C23.6718 18.0586 25.0077 15.9844 26.8242 15.082C28.4999 14.2383 30.2226 14.2266 31.9452 15.0469C33.8085 15.9258 35.1562 17.9648 35.1562 19.875C35.1562 20.4023 35.414 20.7422 35.8242 20.7422C36.246 20.7422 36.3632 20.4492 36.2929 19.5938C36.1171 17.4961 35.0156 15.6211 33.2929 14.4844C31.7577 13.4648 29.6718 13.043 28.0077 13.418Z" fill="black"/>
<path id="Vector_4" d="M30.1875 16.3477C30.0937 16.4414 29.4843 18.1289 28.8281 20.0977C27.8906 22.9453 27.6679 23.7188 27.7734 23.8945C27.9492 24.2344 28.3359 24.3164 28.5937 24.082C28.7929 23.9063 31.1718 17.0625 31.1718 16.6758C31.1718 16.4649 30.832 16.1719 30.5859 16.1719C30.4687 16.1719 30.2929 16.2539 30.1875 16.3477Z" fill="black"/>
<path id="Vector_5" d="M26.0508 19.0313C24.457 20.1211 24.457 20.2383 25.9102 21.211C26.9766 21.9375 27.3398 22.0313 27.5742 21.668C27.7734 21.3399 27.5742 20.9297 27.0117 20.5899C26.7187 20.4024 26.4844 20.2383 26.4844 20.2149C26.4844 20.1914 26.7539 19.9922 27.0703 19.7578C27.4805 19.4649 27.6562 19.2539 27.6562 19.0664C27.6562 18.3633 27.0352 18.3516 26.0508 19.0313Z" fill="black"/>
<path id="Vector_6" d="M31.3125 18.6563C31.0078 18.961 31.1602 19.3125 31.7695 19.7578L32.3789 20.2032L32.0977 20.3789C31.4062 20.8477 31.1602 21.1289 31.1953 21.4336C31.2187 21.6446 31.3359 21.7735 31.5469 21.8438C31.8398 21.9492 31.9922 21.8789 32.8945 21.2578C33.7734 20.6719 33.9258 20.5196 33.9609 20.2032C33.9961 19.875 33.9258 19.8047 33 19.1836C32.0039 18.5157 31.582 18.3867 31.3125 18.6563Z" fill="black"/>
<path id="Vector_7" d="M13.0429 19.0898C12.5624 19.3008 12.5742 19.9805 13.0546 20.1094C13.1835 20.1328 13.7695 20.1562 14.3554 20.1328C15.3867 20.0977 15.4101 20.0859 15.5156 19.7695C15.7031 19.2305 15.4101 19.043 14.2617 19.0195C13.7343 18.9961 13.1835 19.0312 13.0429 19.0898Z" fill="black"/>
<path id="Vector_8" d="M16.4297 19.1719C16.1484 19.3711 16.0898 19.793 16.3125 20.0156C16.4062 20.1094 17.0508 20.1562 18.457 20.1562C20.5781 20.1562 20.7422 20.1211 20.7422 19.6172C20.7422 19.0898 20.3672 18.9844 18.457 18.9844C17.0508 18.9844 16.6406 19.0195 16.4297 19.1719Z" fill="black"/>
<path id="Vector_9" d="M38.3437 19.1719C38.0625 19.3711 38.0039 19.793 38.2265 20.0156C38.3203 20.1094 38.7773 20.1562 39.5039 20.1562C40.5351 20.1562 40.664 20.1328 40.8164 19.9102C41.039 19.5938 40.9336 19.2305 40.582 19.0898C40.1015 18.9141 38.6367 18.9609 38.3437 19.1719Z" fill="black"/>
<path id="Vector_10" d="M41.8827 19.0898C41.5429 19.2305 41.4609 19.6289 41.6952 19.9219C41.8827 20.1445 41.9999 20.168 43.3593 20.1328L44.8241 20.0976L44.9296 19.7695C45.1406 19.1953 44.8359 19.043 43.3827 19.0195C42.6913 18.9961 42.0116 19.0312 41.8827 19.0898Z" fill="black"/>
<path id="Vector_11" d="M12.8203 21.6211C12.6445 21.8906 12.6445 21.9375 12.8203 22.207C13.0078 22.4883 13.0664 22.5 14.1094 22.5C15.0117 22.5 15.2344 22.4648 15.3867 22.2891C15.6445 22.0078 15.6328 21.7617 15.375 21.5273C15.2109 21.375 14.918 21.3281 14.0859 21.3281C13.0664 21.3281 13.0078 21.3398 12.8203 21.6211Z" fill="black"/>
<path id="Vector_12" d="M16.3594 21.5156C16.125 21.75 16.125 22.0781 16.3594 22.3125C16.5117 22.4766 16.9219 22.5 19.043 22.5C21.1641 22.5 21.5742 22.4766 21.7266 22.3125C21.9727 22.0664 21.9609 21.7617 21.7031 21.5273C21.3867 21.2344 16.6406 21.2344 16.3594 21.5156Z" fill="black"/>
<path id="Vector_13" d="M38.2851 21.5391C38.039 21.8086 38.0273 22.0781 38.2734 22.3125C38.414 22.4531 38.707 22.5 39.539 22.5C40.7109 22.5 40.8984 22.418 40.8984 21.8906C40.8984 21.4453 40.6172 21.3281 39.457 21.3281C38.6484 21.3281 38.4375 21.3633 38.2851 21.5391Z" fill="black"/>
<path id="Vector_14" d="M41.8125 21.457C41.5664 21.5977 41.5312 22.1484 41.7421 22.3594C41.8359 22.4531 42.4687 22.5 43.8281 22.5C45.5742 22.5 45.8085 22.4766 45.9726 22.2891C46.2304 22.0078 46.2187 21.7617 45.9609 21.5273C45.7734 21.3633 45.457 21.3281 43.875 21.3281C42.832 21.3281 41.9179 21.3867 41.8125 21.457Z" fill="black"/>
<path id="Vector_15" d="M12.8555 23.8828C12.5977 24.1641 12.6094 24.3281 12.8906 24.6094C13.0899 24.8086 13.2774 24.8438 14.0977 24.8438C15.1406 24.8438 15.586 24.668 15.586 24.2578C15.586 23.8008 15.2813 23.6719 14.1328 23.6719C13.2305 23.6719 13.0078 23.707 12.8555 23.8828Z" fill="black"/>
<path id="Vector_16" d="M16.3125 23.8125C16.0898 24.0352 16.1484 24.4571 16.4297 24.6563C16.7343 24.8789 18.3867 24.9141 18.7617 24.7266C19.0195 24.586 19.0664 24.0352 18.8437 23.8125C18.6562 23.625 16.5 23.625 16.3125 23.8125Z" fill="black"/>
<path id="Vector_17" d="M38.2265 23.8125C38.0039 24.0352 38.0625 24.4571 38.3437 24.6563C38.6718 24.8907 40.4062 24.9141 40.6875 24.6914C40.9687 24.4688 41.0156 24.1875 40.8281 23.918C40.664 23.6953 40.5351 23.6719 39.5039 23.6719C38.7773 23.6719 38.3203 23.7188 38.2265 23.8125Z" fill="black"/>
<path id="Vector_18" d="M41.6718 23.918C41.3085 24.4453 41.7421 24.8438 42.6562 24.8438C43.3945 24.8438 43.8281 24.6094 43.8281 24.2109C43.8281 23.7773 43.6054 23.6719 42.7031 23.6719C41.9648 23.6719 41.8242 23.707 41.6718 23.918Z" fill="black"/>
<path id="Vector_19" d="M12.7617 26.2617C12.668 26.4492 12.668 26.5898 12.7617 26.7891C12.8789 27.0586 12.9375 27.0703 14.1094 27.0703C15.2461 27.0703 15.3516 27.0469 15.4805 26.8242C15.5742 26.6367 15.5742 26.4961 15.4805 26.2969C15.3633 26.0273 15.3047 26.0156 14.1328 26.0156C12.9961 26.0156 12.8906 26.0391 12.7617 26.2617Z" fill="black"/>
<path id="Vector_20" d="M16.3125 26.1562C16.2305 26.2383 16.1719 26.4023 16.1719 26.543C16.1719 27.0234 16.3711 27.0703 18.1641 27.0703C19.957 27.0703 20.1562 27.0234 20.1562 26.543C20.1562 26.0625 19.957 26.0156 18.1641 26.0156C16.9922 26.0156 16.4062 26.0625 16.3125 26.1562Z" fill="black"/>
<path id="Vector_21" d="M38.2266 26.1563C38.1445 26.2383 38.0859 26.4023 38.0859 26.543C38.0859 26.9883 38.3086 27.0703 39.5039 27.0703C40.5352 27.0703 40.6641 27.0469 40.8281 26.8242C41.0039 26.5664 40.957 26.2617 40.7344 26.1094C40.5117 25.957 38.3789 26.0039 38.2266 26.1563Z" fill="black"/>
<path id="Vector_22" d="M41.7656 26.1094C41.543 26.2617 41.4961 26.5664 41.6719 26.8242C41.8359 27.0469 41.9648 27.0703 42.9961 27.0703C44.1914 27.0703 44.414 26.9883 44.414 26.543C44.414 26.0977 44.1914 26.0156 43.0078 26.0156C42.3984 26.0156 41.8359 26.0625 41.7656 26.1094Z" fill="black"/>
<path id="Vector_23" d="M28.0312 26.2734C27.9727 26.3555 27.7852 27 27.6328 27.7031L27.3516 28.9922L26.4023 29.3789L25.4414 29.7773L24.3281 29.0742C23.7187 28.6758 23.1211 28.3594 23.0039 28.3594C22.7227 28.3594 21.0937 30 21.0937 30.2695C21.0937 30.3867 21.4102 30.9844 21.7969 31.6055L22.5117 32.7187L22.1133 33.6797L21.7148 34.6289L20.3789 34.9219C19.2305 35.1797 19.0312 35.2617 18.9023 35.5078C18.7148 35.8828 18.7148 37.4766 18.9023 37.8516C19.043 38.1445 19.2891 38.2266 21.5273 38.7305C21.668 38.7656 21.8203 38.9062 21.8555 39.0586C21.9023 39.1992 22.0664 39.6211 22.2305 39.9844L22.5234 40.6523L21.8086 41.7773C21.4219 42.3867 21.0937 43.0078 21.0937 43.1484C21.0937 43.5117 22.6055 45 22.9805 45C23.1328 45 23.7656 44.6836 24.375 44.2969C24.9844 43.9102 25.5352 43.6172 25.6055 43.6406C25.6641 43.6758 26.0859 43.8516 26.5312 44.0391L27.3516 44.3672L27.6328 45.6562C27.9844 47.2852 28.043 47.3438 29.4023 47.3438C30.7852 47.3438 30.8555 47.2852 31.1719 45.8555C31.5117 44.332 31.5234 44.2969 31.6641 44.2969C31.7344 44.2969 32.1562 44.1328 32.5781 43.9336L33.3633 43.5703L34.4766 44.2852C35.0859 44.6836 35.7187 45 35.8711 45C36.2578 45 37.7344 43.5234 37.7344 43.1484C37.7344 43.0078 37.418 42.375 37.0195 41.7539L36.3164 40.6289L36.5977 39.9727C36.7617 39.6094 36.9258 39.1992 36.9609 39.0586C37.0547 38.7656 37.0195 38.7891 38.5898 38.4375C40.0195 38.1211 40.0781 38.0508 40.0781 36.668C40.0781 35.3086 40.0195 35.25 38.3906 34.8984L37.1016 34.6172L36.7734 33.7969C36.5859 33.3516 36.4102 32.9297 36.375 32.8711C36.3516 32.8008 36.6445 32.25 37.0312 31.6406C37.4062 31.0312 37.7344 30.3984 37.7344 30.2461C37.7344 29.8711 36.2461 28.3594 35.8828 28.3594C35.7422 28.3594 35.1211 28.6758 34.5117 29.0742L33.3984 29.7891L32.4609 29.4023C31.9453 29.1914 31.5 28.9336 31.4648 28.8398C31.4414 28.7344 31.3008 28.1484 31.1719 27.5391C31.0312 26.9297 30.8672 26.3672 30.7969 26.2852C30.6211 26.0742 28.207 26.0742 28.0312 26.2734ZM30.1758 28.3594C30.5508 30.0469 30.4922 29.9531 31.3828 30.2344C31.8164 30.375 32.3906 30.6094 32.6602 30.7734C32.9297 30.9258 33.2344 31.0547 33.3516 31.0547C33.4687 31.0547 34.0547 30.7383 34.6641 30.3398L35.7773 29.6367L36.1289 29.9766L36.4805 30.3281L35.8242 31.3711C35.4609 31.9336 35.1328 32.4961 35.0977 32.6016C35.0508 32.707 35.1797 33.0937 35.3672 33.4805C35.5664 33.8555 35.8125 34.4648 35.918 34.8281C36.1172 35.5547 36.2109 35.6133 37.3828 35.8594C38.9883 36.1992 38.918 36.1641 38.8828 36.7148L38.8477 37.207L37.6172 37.4766C36.9492 37.6172 36.3281 37.8047 36.2578 37.8633C36.1758 37.9336 36.0117 38.2617 35.9062 38.5898C35.8008 38.9297 35.5547 39.5039 35.3789 39.8672C35.1914 40.2422 35.0391 40.5937 35.0391 40.6523C35.0391 40.7227 35.3555 41.2852 35.7539 41.9062L36.4687 43.043L36.1172 43.3945L35.7656 43.7344L34.6289 43.0195C33.9961 42.6328 33.4336 42.3047 33.375 42.3047C33.3164 42.3047 32.9766 42.457 32.6016 42.6445C32.2383 42.8203 31.6641 43.0664 31.3242 43.1719C30.9961 43.2773 30.668 43.4414 30.5977 43.5234C30.5391 43.5937 30.3516 44.2148 30.2109 44.8828L29.9414 46.1133L29.4492 46.1484C28.8984 46.1836 28.9687 46.3008 28.5937 44.6953C28.4531 44.0859 28.2539 43.5469 28.1484 43.4531C28.043 43.3594 27.7148 43.2187 27.4219 43.1367C27.1289 43.0547 26.5898 42.8203 26.2031 42.6328C25.8281 42.4453 25.4414 42.3164 25.3359 42.3633C25.2305 42.3984 24.668 42.7266 24.1055 43.0898L23.0625 43.7461L22.7109 43.3945L22.3594 43.043L23.0742 41.9297C23.4727 41.3203 23.7891 40.7344 23.7891 40.6406C23.7891 40.5469 23.6367 40.1836 23.4492 39.832C23.2617 39.4805 23.0156 38.8945 22.9102 38.5312C22.6992 37.7812 22.7695 37.8164 21.0937 37.4414L19.9805 37.1953L19.9453 36.7031C19.9102 36.2812 19.9453 36.2109 20.1797 36.1523C20.332 36.1289 20.9531 35.9766 21.5625 35.8359L22.6758 35.5664L22.9922 34.6641C23.1562 34.1602 23.4141 33.5742 23.543 33.3516C23.8008 32.9414 23.8594 32.5781 23.6836 32.3906C23.625 32.332 23.3086 31.8516 22.9805 31.3242L22.3828 30.3516L22.7109 29.9883L23.0391 29.625L24.1758 30.3398C24.7969 30.7383 25.3945 31.0547 25.5117 31.0547C25.6289 31.0547 25.9102 30.9375 26.1328 30.7969C26.3555 30.668 26.9414 30.4102 27.4219 30.2461L28.3008 29.9414L28.5117 29.0039C28.9805 27.0117 28.8984 27.1758 29.4375 27.2109L29.9297 27.2461L30.1758 28.3594Z" fill="black"/>
<path id="Vector_24" d="M28.2188 31.6406C27.4102 31.8398 26.332 32.4844 25.7344 33.0938C23.168 35.7305 24.1172 40.1367 27.5391 41.5078C28.0664 41.7188 28.418 41.7656 29.4844 41.7773C30.7383 41.7773 30.7969 41.7656 31.6641 41.332C32.7422 40.8047 33.6211 39.9023 34.1484 38.7891C34.4766 38.0859 34.5 37.9336 34.5 36.7383C34.5117 35.6719 34.4648 35.332 34.2422 34.8047C33.7148 33.4922 32.5664 32.3438 31.2891 31.8633C30.5625 31.582 28.9219 31.4648 28.2188 31.6406ZM31.1133 33.0469C34.0898 34.4766 34.1836 38.6719 31.2656 40.2539C30.3984 40.7227 28.9688 40.8047 27.9844 40.4297C25.5469 39.5156 24.6563 36.4453 26.1914 34.3125C26.6484 33.6914 27.3633 33.1641 28.125 32.8828C28.8984 32.6016 30.3633 32.6836 31.1133 33.0469Z" fill="black"/>
<path id="Vector_25" d="M28.4766 34.3945C27.9375 34.6406 27.457 35.1094 27.1641 35.6719C26.8125 36.3633 26.9063 37.4414 27.3633 38.1094C28.3477 39.4922 30.4805 39.4922 31.4648 38.0977C31.7461 37.6992 31.8164 37.4648 31.8516 36.8203C31.8984 35.8477 31.6055 35.2031 30.8438 34.6523C30.4336 34.3594 30.2109 34.2773 29.6133 34.2539C29.1328 34.2305 28.7461 34.2773 28.4766 34.3945ZM30.0938 35.5547C31.0664 36.0586 30.9141 37.582 29.8477 37.9336C28.9453 38.2383 28.125 37.6406 28.125 36.6797C28.125 36.2812 28.1953 36.1172 28.5234 35.7891C28.9688 35.3437 29.5195 35.2617 30.0938 35.5547Z" fill="black"/>
<path id="Vector_26" d="M12.8907 28.4766C12.6094 28.7578 12.6094 28.8164 12.8438 29.1562C13.0078 29.3906 13.1133 29.4141 14.1211 29.4141C15.2696 29.4141 15.586 29.2969 15.586 28.8398C15.586 28.3945 15.211 28.2422 14.1446 28.2422C13.2774 28.2422 13.0899 28.2773 12.8907 28.4766Z" fill="black"/>
<path id="Vector_27" d="M16.3711 28.4532C16.1016 28.7461 16.125 29.1446 16.3945 29.2969C16.7344 29.4727 20.4258 29.4492 20.6016 29.2735C20.8008 29.0742 20.7774 28.6407 20.5547 28.4297C20.4024 28.2774 20.0391 28.2422 18.4688 28.2422C16.7695 28.2422 16.5352 28.2657 16.3711 28.4532Z" fill="black"/>
<path id="Vector_28" d="M38.2851 28.4531C38.039 28.7227 38.0273 28.9922 38.2734 29.2266C38.414 29.3672 38.707 29.4141 39.5508 29.4141C40.5351 29.4141 40.664 29.3906 40.8281 29.168C40.9219 29.0273 40.9687 28.8281 40.9336 28.7227C40.793 28.3359 40.5117 28.2422 39.4922 28.2422C38.6601 28.2422 38.4375 28.2773 38.2851 28.4531Z" fill="black"/>
<path id="Vector_29" d="M41.8125 28.3828C41.5312 28.6172 41.4843 28.8984 41.6718 29.168C41.8359 29.3906 41.9531 29.4141 43.2421 29.4141C44.707 29.4141 45 29.3203 45 28.8398C45 28.3711 44.6484 28.2422 43.289 28.2422C42.4335 28.2422 41.9414 28.2891 41.8125 28.3828Z" fill="black"/>
<path id="Vector_30" d="M28.6641 50.918C27.4922 51.3281 26.8828 52.5351 27.2461 53.7422C27.457 54.4687 28.0312 55.0312 28.7695 55.2656C30.7031 55.8398 32.3906 53.8125 31.4648 52.0195C31.2187 51.5625 30.5391 51 30.0351 50.8711C29.4609 50.707 29.2266 50.7187 28.6641 50.918ZM30.1875 52.3125C30.7031 52.8281 30.7148 53.2851 30.2461 53.8125C29.9648 54.1289 29.8242 54.1992 29.4258 54.1992C28.3594 54.1992 27.8906 52.9687 28.6875 52.2539C29.2148 51.7851 29.6719 51.7969 30.1875 52.3125Z" fill="black"/>
<path id="Vector_31" d="M5.58977 7.62891C4.8632 8.05078 5.28508 9.25781 6.16399 9.25781C6.44524 9.25781 6.91399 8.70703 6.91399 8.37891C6.91399 7.75781 6.12883 7.3125 5.58977 7.62891Z" fill="black"/>
<path id="Vector_32" d="M52.7461 8.97654C52.3476 9.48045 52.4414 9.98436 52.9687 10.2539C53.3906 10.4765 53.9414 10.3008 54.1289 9.89061C54.3164 9.45701 54.2929 9.28123 53.9648 8.96482C53.5781 8.56639 53.0625 8.57811 52.7461 8.97654Z" fill="black"/>
<path id="Vector_33" d="M51.832 17.5313C51.5625 17.625 51.1054 17.918 50.8125 18.1758C48.4453 20.2617 49.8867 24.1641 53.0273 24.1875C54.0703 24.1875 54.8789 23.8477 55.582 23.0977C56.2851 22.3477 56.5195 21.6797 56.4609 20.6016C56.3906 19.2773 55.7578 18.2578 54.6562 17.6953C53.9414 17.332 52.582 17.25 51.832 17.5313ZM54.1406 18.75C55.5351 19.4648 55.7929 21.3164 54.6445 22.4063C53.2734 23.707 51.1523 22.9805 50.8008 21.082C50.6367 20.2031 51.2109 19.125 52.0547 18.7148C52.5937 18.4453 53.5781 18.4688 54.1406 18.75Z" fill="black"/>
<path id="Vector_34" d="M7.20702 23.3789C6.73827 23.8359 6.86718 24.5156 7.46484 24.7383C8.02734 24.9492 8.67187 24.4687 8.67187 23.8359C8.67187 23.5547 8.12109 23.0859 7.79296 23.0859C7.6289 23.0859 7.35937 23.2148 7.20702 23.3789Z" fill="black"/>
<path id="Vector_35" d="M51.7734 27.832C51.2226 28.1367 51.2344 28.9922 51.7969 29.2969C52.1601 29.4844 52.4883 29.4375 52.793 29.1211C53.5078 28.418 52.664 27.3398 51.7734 27.832Z" fill="black"/>
<path id="Vector_36" d="M5.15623 42.2109C4.57029 42.375 4.01951 42.832 3.73826 43.3828C3.36326 44.1094 3.45701 45.1875 3.9492 45.7852C4.46482 46.4414 4.98045 46.6992 5.74217 46.6992C6.66795 46.6992 7.37107 46.2656 7.78123 45.4453C8.13279 44.7539 8.16795 44.2383 7.89842 43.6172C7.44139 42.5039 6.24607 41.8945 5.15623 42.2109ZM6.26951 43.418C7.4531 43.9922 6.82029 45.8203 5.53123 45.5273C4.75779 45.3633 4.40623 44.4492 4.85154 43.7813C5.19139 43.2539 5.66014 43.1367 6.26951 43.418Z" fill="black"/>
<path id="Vector_37" d="M51.5742 47.0625C51.2929 47.4258 51.2695 47.5664 51.457 47.9766C51.7265 48.5742 52.6874 48.5625 52.957 47.9766C53.1445 47.5664 53.121 47.4258 52.8398 47.0625C52.664 46.8398 52.4882 46.7578 52.207 46.7578C51.9257 46.7578 51.7499 46.8398 51.5742 47.0625Z" fill="black"/>
<path id="Vector_38" d="M5.66018 50.8828C4.86331 51.2695 5.19143 52.5 6.09378 52.5C6.43362 52.5 6.91409 51.9844 6.91409 51.6211C6.91409 51.2695 6.43362 50.7422 6.12893 50.7539C6.01174 50.7539 5.80081 50.8125 5.66018 50.8828Z" fill="black"/>
</g>
</g>
</svg>
