<svg width="60" height="60" viewBox="0 0 60 60" fill="none" xmlns="http://www.w3.org/2000/svg">
<g id="development_10107123 1">
<g id="Group">
<path id="Vector" d="M4.41797 1.76955C3.32812 2.02736 2.4375 2.78908 2.03906 3.82033C1.82812 4.37111 1.81641 5.0508 1.81641 24.3164C1.81641 43.6289 1.82812 44.2617 2.03906 44.8125C2.33203 45.586 3.02344 46.3125 3.78516 46.6524L4.39453 46.9336H16.9102H29.4375L29.6602 46.6524C29.8945 46.3594 29.8828 45.9024 29.6367 45.6445C29.5664 45.5742 26.4258 45.5039 20.9414 45.4688L12.3633 45.4102V27.9492V10.4883H34.5117H56.6602V27.3867C56.6602 44.2617 56.6602 44.2852 56.4141 44.6016C55.8516 45.3633 55.6992 45.4102 53.6953 45.4453C52.6875 45.457 51.7383 45.4922 51.6094 45.5274C51.4688 45.5625 51.293 45.7383 51.2109 45.9375C51.0938 46.2305 51.0938 46.336 51.2578 46.582C51.5273 46.9805 51.7734 47.0274 53.8711 46.9688C55.5938 46.9219 55.7578 46.8985 56.3086 46.6172C57 46.2539 57.5273 45.7266 57.9023 45L58.1836 44.4727V24.4336C58.1836 5.00392 58.1719 4.37111 57.9609 3.82033C57.668 3.04689 56.9766 2.32033 56.2148 1.98048L55.6055 1.69923L30.2344 1.6758C15.6914 1.6758 4.67578 1.71095 4.41797 1.76955ZM55.9453 3.56252C56.6484 4.08986 56.7188 4.39455 56.7188 6.85548V9.02345H30H3.28125V6.85548C3.28125 4.18361 3.375 3.87892 4.39453 3.35158C4.71094 3.18752 7.27734 3.16408 30.1289 3.19923L55.5117 3.22267L55.9453 3.56252ZM10.8398 27.9492V45.4102H7.66406H4.48828L4.07812 45.0938C3.22266 44.4375 3.28125 45.8555 3.28125 27.2813C3.28125 18.0938 3.31641 10.5469 3.36328 10.5117C3.41016 10.4649 5.10938 10.4414 7.13672 10.4531L10.8398 10.4883V27.9492Z" fill="black"/>
<path id="Vector_2" d="M11.9531 5.35548C11.3671 5.57813 11.1796 6.23438 11.5781 6.59766C11.9062 6.90235 14.1796 6.89063 14.4492 6.58594C14.7187 6.29298 14.6953 5.82423 14.4023 5.55469C14.2031 5.37891 13.9453 5.33204 13.1367 5.3086C12.5859 5.29688 12.0468 5.3086 11.9531 5.35548Z" fill="black"/>
<path id="Vector_3" d="M18.0469 5.35547C17.4727 5.57812 17.3086 6.05859 17.6485 6.53906C17.8125 6.77344 17.918 6.79688 19.0899 6.79688C20.4727 6.79688 20.7422 6.67969 20.7422 6.07031C20.7422 5.53125 20.3672 5.33203 19.2305 5.30859C18.6797 5.29688 18.1406 5.30859 18.0469 5.35547Z" fill="black"/>
<path id="Vector_4" d="M5.47263 5.60157C5.21482 5.88282 5.22654 6.36329 5.48435 6.59766C5.81248 6.90235 8.08592 6.89063 8.35545 6.58594C8.61326 6.30469 8.60154 5.82423 8.34373 5.58985C8.0156 5.28516 5.74217 5.29688 5.47263 5.60157Z" fill="black"/>
<path id="Vector_5" d="M5.90629 12.5274C4.18363 13.3125 4.03129 15.8555 5.6602 16.8047C6.98442 17.5899 8.48442 17.1211 9.19926 15.7149C9.51567 15.0938 9.39848 13.9688 8.96488 13.336C8.2852 12.3867 6.98442 12.0352 5.90629 12.5274ZM7.61723 14.0625C8.17973 14.625 7.73442 15.7031 6.96098 15.7031C6.57426 15.7031 5.9766 15.1055 5.9766 14.7305C5.9766 14.5781 6.08207 14.3086 6.2227 14.1328C6.52738 13.7461 7.25395 13.6992 7.61723 14.0625Z" fill="black"/>
<path id="Vector_6" d="M6.15232 20.8828C5.57811 21.0938 5.17967 21.4336 4.83982 22.0078C4.20701 23.0859 4.52342 24.4922 5.57811 25.2305C7.03123 26.25 9.17576 25.3008 9.35154 23.5547C9.43357 22.6992 9.30467 22.2422 8.8242 21.6797C8.10936 20.8594 7.08982 20.5547 6.15232 20.8828ZM7.61717 22.5586C8.33201 23.3203 7.49998 24.4453 6.50389 24.0703C6.21092 23.9531 5.95311 23.3438 6.03514 22.957C6.18748 22.2539 7.11326 22.0195 7.61717 22.5586Z" fill="black"/>
<path id="Vector_7" d="M6.62111 29.2383C6.56252 29.2617 6.3633 29.3086 6.1758 29.3438C5.8008 29.4375 4.96877 30.1406 4.75783 30.5742C4.33595 31.4062 4.45314 32.4844 5.06252 33.2109C6.09377 34.4648 8.02736 34.3945 8.96486 33.0703C9.43361 32.4023 9.51564 31.3242 9.15236 30.6211C8.68361 29.6953 7.38283 28.9805 6.62111 29.2383ZM7.54689 30.9609C7.96877 31.3477 8.00392 31.957 7.6172 32.3438C7.27736 32.6836 6.63283 32.6602 6.26955 32.2852C5.88283 31.8984 5.89455 31.4648 6.31642 31.043C6.72658 30.6328 7.14845 30.6094 7.54689 30.9609Z" fill="black"/>
<path id="Vector_8" d="M5.83591 37.9688C5.23826 38.2852 4.72263 38.9531 4.57029 39.6211C4.37107 40.418 4.6406 41.2735 5.24998 41.8711C6.82029 43.4063 9.37498 42.3281 9.37498 40.1367C9.37498 38.7188 8.36716 37.7344 6.94919 37.7344C6.5156 37.7461 6.11716 37.8281 5.83591 37.9688ZM7.37107 39.3164C7.72263 39.4922 7.94529 39.961 7.87498 40.3828C7.8281 40.7227 7.49998 40.9922 7.05466 41.086C6.74998 41.1446 6.63279 41.0977 6.3281 40.8047C6.1406 40.6055 5.97654 40.3242 5.97654 40.1719C5.97654 39.8203 6.28123 39.3867 6.60935 39.2578C6.94919 39.1172 6.99607 39.1172 7.37107 39.3164Z" fill="black"/>
<path id="Vector_9" d="M26.0976 12.9141C25.9922 12.9961 24.7617 15.9141 23.3672 19.3945C20.6484 26.1914 20.6484 26.168 21.3516 26.4141C22.0898 26.6719 22.0312 26.7656 24.7969 19.875L27.3516 13.4766L27.1055 13.1484C26.8359 12.7969 26.4141 12.6914 26.0976 12.9141Z" fill="black"/>
<path id="Vector_10" d="M16.7461 16.9453C14.7305 18.961 14.4141 19.3125 14.4141 19.6289C14.4141 19.9453 14.7305 20.2969 16.7344 22.3008C19.1602 24.7149 19.3477 24.8321 19.8047 24.375C20.3086 23.8711 20.168 23.6485 18.1055 21.5625L16.1719 19.6289L18.1055 17.6953C19.6055 16.1953 20.0391 15.6914 20.0391 15.4688C20.0391 15.0703 19.8164 14.8008 19.418 14.6953C19.1133 14.625 18.9258 14.7774 16.7461 16.9453Z" fill="black"/>
<path id="Vector_11" d="M28.4766 14.8008C28.2656 14.9063 28.1719 15.0586 28.1484 15.3516C28.1133 15.7383 28.2188 15.8672 30 17.6367C31.0312 18.668 31.875 19.5586 31.875 19.6289C31.875 19.6992 31.0312 20.5899 30 21.6211C28.3477 23.2735 28.125 23.543 28.125 23.8711C28.125 24.3282 28.5586 24.6797 28.9688 24.5742C29.1211 24.5274 30.2578 23.4844 31.5 22.2305C33.375 20.3438 33.75 19.9102 33.75 19.6289C33.75 19.3477 33.3867 18.9258 31.6172 17.1328C29.8242 15.3399 29.0391 14.6367 28.8047 14.6485C28.7812 14.6485 28.6406 14.7188 28.4766 14.8008Z" fill="black"/>
<path id="Vector_12" d="M36.5742 14.8477C36.3281 15.0586 36.3281 15.1055 36.3515 18.75L36.3867 22.4297L36.6797 22.582C36.9023 22.6992 38.7539 22.7344 44.918 22.7344H52.8633L53.1445 22.4414L53.4375 22.1602V18.6914V15.2227L53.1445 14.9414L52.8633 14.6484H44.8476C37.3828 14.6484 36.8086 14.6602 36.5742 14.8477ZM51.914 18.6914V21.2109H44.8242H37.7344V18.6914V16.1719H44.8242H51.914V18.6914Z" fill="black"/>
<path id="Vector_13" d="M14.6719 29.3672C14.3437 29.5898 14.3203 30.2344 14.625 30.5039C14.8242 30.6914 16.207 30.7031 32.0625 30.7031C51.1875 30.7031 49.8047 30.7617 49.8047 29.9414C49.8047 29.1211 51.1758 29.1797 32.1094 29.1797C16.7578 29.1797 14.9062 29.2031 14.6719 29.3672Z" fill="black"/>
<path id="Vector_14" d="M37.8867 34.3125C37.7695 34.4297 37.4414 35.3789 37.1602 36.4336L36.6328 38.3438L36.1641 38.6484L35.6836 38.9414L33.7148 38.4375C32.2148 38.0508 31.6641 37.957 31.4414 38.0391C31.2305 38.1211 30.8438 38.6719 30 40.1367C29.3555 41.2266 28.8398 42.2227 28.8281 42.3399C28.8281 42.4453 29.4844 43.2422 30.293 44.0859L31.7578 45.6328V46.2188V46.8047L30.293 48.2813C29.4492 49.1367 28.8281 49.8633 28.8281 49.9922C28.8281 50.3203 31.043 54.1289 31.3594 54.3281C31.5938 54.4922 31.793 54.457 33.6445 53.9766L35.6602 53.4492L36.1523 53.7305L36.6445 54.0234L37.1484 55.9102C37.4297 56.9414 37.7461 57.9141 37.8633 58.043C38.0508 58.2891 38.1797 58.3008 40.1484 58.3359C42.5391 58.3828 42.9492 58.3359 43.1719 57.9727C43.2656 57.832 43.5703 56.8828 43.8633 55.8633L44.3672 54.0117L44.8594 53.7305L45.3398 53.4492L47.3555 53.9766C49.1836 54.457 49.3828 54.4922 49.6172 54.3281C49.9336 54.1289 52.1484 50.3203 52.1484 49.9922C52.1484 49.8633 51.5273 49.1367 50.6836 48.2813C49.2188 46.8047 49.2188 46.8047 49.2188 46.2422C49.2188 45.6914 49.2305 45.668 50.6836 44.1211C51.4922 43.2539 52.1484 42.457 52.1484 42.3516C52.1484 42 49.8867 38.1914 49.5938 38.0508C49.3711 37.9453 48.9258 38.0156 47.3086 38.4375L45.293 38.9531L44.8242 38.6484L44.3438 38.3438L43.8281 36.4336C43.5352 35.3555 43.2188 34.4297 43.1016 34.3125C42.9141 34.125 42.6328 34.1016 40.4883 34.1016C38.3438 34.1016 38.0625 34.125 37.8867 34.3125ZM42.293 36.5859C42.4336 37.125 42.6797 37.9922 42.8438 38.5195L43.125 39.4688L44.1328 40.0078L45.1289 40.5586L46.9453 40.0781C47.9414 39.8203 48.7969 39.6094 48.8438 39.6094C48.9023 39.6094 49.2656 40.1836 49.6758 40.8984L50.4141 42.1875L49.0547 43.6406L47.6953 45.082V46.2305V47.3789L49.043 48.75C49.7812 49.5 50.3906 50.1445 50.3906 50.1797C50.3906 50.2617 49.1367 52.4766 48.9727 52.6875C48.8906 52.7813 48.3633 52.6875 47.1328 52.3711C46.1836 52.1133 45.293 51.9141 45.1641 51.9141C44.9414 51.9141 43.9336 52.4414 43.2891 52.8984C43.1133 53.0156 42.9141 53.5664 42.5391 54.9492L42.0234 56.8359H40.4883H38.9531L38.4375 54.9492C38.0625 53.5664 37.8633 53.0156 37.6875 52.8984C37.043 52.4414 36.0352 51.9141 35.8125 51.9141C35.6836 51.9141 34.793 52.125 33.8438 52.3711C32.5898 52.6992 32.0859 52.793 32.0156 52.6875C31.8164 52.4414 30.5859 50.2852 30.5859 50.2031C30.5859 50.1445 31.1953 49.5 31.9336 48.75L33.2812 47.3789V46.2188V45.0586L31.9219 43.6172L30.5625 42.1875L31.3008 40.8984C31.7109 40.1836 32.0859 39.6094 32.1562 39.6094C32.2148 39.6094 33.0703 39.8203 34.0547 40.0781L35.8594 40.5586L36.7383 40.0664C37.2305 39.7969 37.6992 39.5156 37.7812 39.4336C37.8633 39.3399 38.1562 38.4609 38.4375 37.4531L38.9414 35.625H40.4883H42.0352L42.293 36.5859Z" fill="black"/>
<path id="Vector_15" d="M38.9648 41.8125C37.7461 42.2344 36.8438 43.0782 36.2344 44.3789C35.9531 44.9766 35.918 45.1992 35.918 46.2305C35.918 47.2617 35.9531 47.4844 36.2344 48.0703C37.5938 50.9766 41.2852 51.75 43.5938 49.6055C44.9766 48.3282 45.457 46.5469 44.8945 44.7891C44.4375 43.3711 43.2422 42.1758 41.9062 41.7774C41.1211 41.543 39.6914 41.5547 38.9648 41.8125ZM41.8242 43.3594C42.9961 43.9571 43.5938 44.9063 43.5938 46.1602C43.5938 48.8906 40.5 50.3203 38.4375 48.5508C37.1953 47.4844 37.0195 45.5508 38.0391 44.2149C38.3555 43.793 39.1992 43.2657 39.7617 43.1133C40.3008 42.9727 41.3203 43.0899 41.8242 43.3594Z" fill="black"/>
<path id="Vector_16" d="M14.6016 35.2266C14.3672 35.4609 14.3672 36.0234 14.6016 36.2578C14.7656 36.4219 15.6797 36.4453 22.957 36.4453C31.8984 36.4453 31.5586 36.4688 31.5586 35.7656C31.5586 34.9922 32.1094 35.0391 23.0156 35.0391C15.6914 35.0391 14.7656 35.0625 14.6016 35.2266Z" fill="black"/>
<path id="Vector_17" d="M14.6133 40.9922C14.3203 41.3086 14.3555 41.9062 14.6719 42.1172C14.8945 42.2812 15.5859 42.3047 19.8399 42.3047H24.7383L25.0195 42.0117C25.1836 41.8594 25.3125 41.6719 25.3125 41.6016C25.3125 41.4141 25.0664 40.9805 24.9141 40.875C24.8438 40.8281 22.5352 40.7812 19.793 40.7812C15.1055 40.7812 14.7891 40.793 14.6133 40.9922Z" fill="black"/>
</g>
</g>
</svg>
