<svg width="60" height="60" viewBox="0 0 60 60" fill="none" xmlns="http://www.w3.org/2000/svg">
<g id="coding_921526 1" clip-path="url(#clip0_50_29)">
<g id="Group">
<path id="Vector" d="M2.91006 0.175774C2.60537 0.257805 2.1835 0.433586 1.96084 0.574211C1.48037 0.86718 0.671782 1.72265 0.437407 2.17968C0.00381388 3.03515 -0.00790486 3.5039 0.0272513 15.9961L0.0624075 28.1836L0.367095 28.8281C0.753813 29.6484 1.52725 30.4219 2.34756 30.8086C2.9335 31.0781 3.15615 31.1133 4.66787 31.1484L6.33193 31.1953V38.0742C6.33193 43.7812 6.36709 45.0586 6.50771 45.6211C7.07021 47.7891 8.69911 49.418 10.8671 49.9805C11.4296 50.1328 12.8124 50.1562 19.4218 50.1562H27.3085V51.5625C27.3085 52.9453 27.3085 52.9687 27.0389 52.9687C26.5819 52.9687 25.41 53.3203 24.7421 53.6484C23.8514 54.082 22.7382 55.207 22.2811 56.1094C21.496 57.6562 21.3788 59.0391 21.9647 59.6367L22.2694 59.9414L33.0272 59.9766C42.8124 60.0117 43.8084 60 44.1366 59.8242C44.5702 59.5898 44.7694 59.2148 44.7694 58.6172C44.7694 58.0078 44.4647 56.8945 44.0897 56.1328C43.6795 55.3125 42.4256 54.0586 41.6053 53.6484C40.9256 53.3203 39.7538 52.9687 39.2967 52.9687C39.0272 52.9687 39.0272 52.9453 39.0272 51.5625V50.1562H46.9139C53.5233 50.1562 54.9061 50.1328 55.4686 49.9805C57.6366 49.418 59.2655 47.7891 59.828 45.6211C60.0975 44.6133 60.0975 14.4492 59.828 13.4414C59.16 10.8516 56.7576 8.90624 54.2381 8.90624H53.6756V6.74999C53.6756 5.5664 53.617 4.31249 53.5584 3.97265C53.1952 2.03905 51.5194 0.421867 49.5272 0.0937424C46.9842 -0.328133 44.4295 1.4414 43.9491 3.97265C43.8905 4.31249 43.8319 5.5664 43.8319 6.74999V8.90624H41.5936C40.1874 8.90624 39.2733 8.95312 39.1092 9.03515C38.2303 9.49218 38.2303 10.6641 39.1092 11.1211C39.2733 11.2031 40.1874 11.25 41.5936 11.25H43.8319V12.6797C43.8319 14.332 43.9256 14.6133 44.5702 14.918C44.992 15.1289 45.0155 15.1289 45.4373 14.918C46.1405 14.5781 46.1756 14.4258 46.1756 11.4492V8.78905H48.7537H51.3319V18.8086V28.8281H48.7537H46.1873L46.1522 25.3008L46.117 21.7734L45.7186 21.4219C45.3905 21.1289 45.2616 21.082 44.8983 21.1406C44.6288 21.1758 44.3592 21.3398 44.16 21.5625L43.8319 21.9141V26.0859C43.8319 29.9531 43.8436 30.2695 44.0545 30.6797C44.1834 30.9141 44.8163 32.0039 45.4608 33.1055L46.6444 35.0977L34.9374 35.1562C24.7772 35.2031 23.2186 35.2383 23.0194 35.3906C22.621 35.707 22.5155 35.9062 22.5038 36.3633C22.5038 36.7031 22.5858 36.8906 22.8436 37.1602L23.1835 37.5H38.535H53.8748L54.1795 37.2187C54.7537 36.6914 54.7186 35.918 54.0975 35.4609C53.828 35.25 53.5467 35.2031 52.3162 35.1562L50.8631 35.0977L52.0467 33.1055C52.6912 32.0039 53.3241 30.9141 53.453 30.6797C53.6639 30.2578 53.6756 29.8594 53.6756 20.7305V11.2148L54.367 11.2851C55.6795 11.4023 56.8162 12.1875 57.3553 13.3476L57.6014 13.8867L57.6366 26.8594L57.66 39.8437H33.1678H8.67568V35.5078V31.1719L20.8983 31.1484L33.1092 31.1133L33.7538 30.8086C34.5741 30.4219 35.3475 29.6484 35.7342 28.8281L36.0389 28.1836L36.0741 15.9961C36.1092 3.5039 36.0975 3.03515 35.6639 2.17968C35.4296 1.72265 34.621 0.86718 34.1522 0.574211C33.203 -0.0117264 33.5428 -7.62939e-06 17.9921 0.0117111C6.50771 0.0234299 3.34365 0.0468674 2.91006 0.175774ZM32.91 2.57812C33.6952 3.05859 33.7538 3.29296 33.7538 5.99999V8.43749H18.0507H2.34756V5.99999C2.34756 3.29296 2.40615 3.05859 3.19131 2.57812C3.56631 2.34374 3.8124 2.34374 18.0507 2.34374C32.2889 2.34374 32.535 2.34374 32.91 2.57812ZM49.7498 2.5664C50.8631 3.0703 51.3202 3.91405 51.3319 5.41405V6.4453H48.7537H46.1756V5.41405C46.1756 4.67577 46.2459 4.26562 46.3983 3.92577C46.8319 2.98827 47.7811 2.34374 48.7537 2.34374C49.0467 2.34374 49.492 2.44921 49.7498 2.5664ZM33.7538 19.1836C33.7538 27.375 33.7421 27.6094 33.5194 27.9844C33.3905 28.1953 33.121 28.4648 32.91 28.5937C32.535 28.8281 32.2889 28.8281 18.0507 28.8281C3.8124 28.8281 3.56631 28.8281 3.19131 28.5937C2.98037 28.4648 2.71084 28.1953 2.58194 27.9844C2.35928 27.6094 2.34756 27.375 2.34756 19.1836V10.7812H18.0507H33.7538V19.1836ZM50.3709 31.2773C50.2772 31.5234 48.8006 33.9844 48.7537 33.9844C48.7069 33.9844 47.2303 31.5234 47.1366 31.2773C47.1131 31.2187 47.8397 31.1719 48.7537 31.1719C49.6678 31.1719 50.3944 31.2187 50.3709 31.2773ZM57.6366 43.6758C57.6014 44.8945 57.5428 45.2812 57.3436 45.7148C57.0272 46.418 56.2655 47.1797 55.5623 47.5078L55.0233 47.7539H33.1678H11.3124L10.7733 47.5078C10.0702 47.1797 9.30849 46.418 8.99208 45.7148C8.79286 45.2812 8.73427 44.8945 8.69911 43.6758L8.65224 42.1875H33.1678H57.6834L57.6366 43.6758ZM36.6835 51.5625V52.9687H33.1678H29.6522V51.5625V50.1562H33.1678H36.6835V51.5625ZM39.9295 55.4883C40.703 55.7227 41.4178 56.25 41.8397 56.918C42.0389 57.2227 42.1913 57.5156 42.1913 57.5625C42.1913 57.6094 38.1366 57.6562 33.1678 57.6562C28.2108 57.6562 24.1444 57.6094 24.1444 57.5625C24.1444 57.3281 24.8592 56.3672 25.2577 56.0625C26.2303 55.3242 26.2655 55.3242 33.121 55.3125C38.2889 55.3125 39.4374 55.3359 39.9295 55.4883Z" fill="black"/>
<path id="Vector_2" d="M4.8633 4.3242C3.82033 4.75779 3.99611 6.30466 5.10939 6.5156C5.76564 6.63279 6.44533 6.05857 6.44533 5.3906C6.44533 4.60545 5.58986 4.03123 4.8633 4.3242Z" fill="black"/>
<path id="Vector_3" d="M8.84773 4.32426C7.83992 4.74613 7.98055 6.26957 9.04695 6.50394C9.71492 6.65629 10.4298 6.09379 10.4298 5.40238C10.4298 4.58207 9.59773 4.01957 8.84773 4.32426Z" fill="black"/>
<path id="Vector_4" d="M12.7735 4.37114C12.3282 4.58208 12.0352 5.27348 12.1875 5.69536C12.375 6.18754 12.6446 6.43364 13.0665 6.51567C14.3672 6.76176 14.9297 4.95708 13.7461 4.3477C13.418 4.18364 13.1368 4.18364 12.7735 4.37114Z" fill="black"/>
<path id="Vector_5" d="M18.6797 4.33599C18.3047 4.48833 17.9297 5.02739 17.9297 5.40239C17.9297 5.61333 18.0586 5.88286 18.2695 6.11724L18.6094 6.50396L24.3867 6.53911C28.5938 6.56255 30.2578 6.52739 30.5039 6.43364C30.8555 6.2813 31.1719 5.78911 31.1719 5.39067C31.1719 5.00396 30.8672 4.51177 30.5273 4.35942C30.1641 4.19536 19.0898 4.17192 18.6797 4.33599Z" fill="black"/>
<path id="Vector_6" d="M20.1797 13.4297C19.8633 13.7227 14.7539 22.2422 14.2149 23.3672C13.5469 24.7735 15.3868 25.7695 16.2422 24.457C16.6758 23.7891 21.6797 15.2344 21.8789 14.836C22.1016 14.3555 22.0196 13.7227 21.6914 13.4297C21.5625 13.3125 21.2578 13.1953 21 13.1602C20.6133 13.1133 20.4844 13.1485 20.1797 13.4297Z" fill="black"/>
<path id="Vector_7" d="M10.1367 14.168C9.52737 14.543 5.76565 18.4453 5.68362 18.7852C5.51955 19.4297 5.73049 19.7109 8.01565 21.9961C10.2422 24.2227 10.2774 24.2578 10.7696 24.2578C11.6719 24.2578 12.2227 23.3789 11.8242 22.582C11.7539 22.4414 10.9805 21.5977 10.1016 20.707L8.49612 19.1016L10.1016 17.4844C10.9805 16.6055 11.7539 15.7617 11.8242 15.6211C12.0586 15.1523 11.9766 14.6602 11.6133 14.2852C11.2032 13.875 10.6641 13.8398 10.1367 14.168Z" fill="black"/>
<path id="Vector_8" d="M24.4806 14.2852C24.1173 14.6602 24.0353 15.1523 24.2696 15.6211C24.3399 15.7617 25.1134 16.6055 25.9923 17.4844L27.5978 19.1016L25.9923 20.707C25.1134 21.5977 24.3399 22.4414 24.2696 22.582C23.8712 23.3789 24.422 24.2578 25.3243 24.2578C25.8165 24.2578 25.8517 24.2227 28.0782 21.9961C30.3634 19.7109 30.5743 19.4297 30.4103 18.7852C30.3282 18.4336 26.3907 14.3789 25.8751 14.1094C25.3595 13.8398 24.8673 13.8984 24.4806 14.2852Z" fill="black"/>
<path id="Vector_9" d="M44.2618 17.2735C43.6993 17.8008 43.7227 18.5743 44.3321 19.0313C45.1524 19.6407 46.3712 18.8555 46.1251 17.8594C45.9962 17.379 45.504 16.9922 45.0001 16.9922C44.7071 16.9922 44.4727 17.086 44.2618 17.2735Z" fill="black"/>
<path id="Vector_10" d="M17.9648 35.2383C17.8242 35.2617 17.5664 35.4492 17.4023 35.6367C16.7344 36.4453 17.2617 37.5 18.3398 37.5C18.7852 37.5 18.9492 37.4414 19.2305 37.1602C19.6875 36.6914 19.7109 36.0234 19.2656 35.5781C19.0898 35.4141 18.8906 35.2734 18.8203 35.2734C18.75 35.2734 18.5859 35.25 18.457 35.2266C18.3281 35.2031 18.1055 35.2031 17.9648 35.2383Z" fill="black"/>
</g>
</g>
<defs>
<clipPath id="clip0_50_29">
<rect width="60" height="60" fill="white"/>
</clipPath>
</defs>
</svg>
