<svg width="60" height="60" viewBox="0 0 60 60" fill="none" xmlns="http://www.w3.org/2000/svg">
<path d="M3.89478 0.115784C2.69822 0.350121 1.3257 1.35776 0.668761 2.48257C-0.0233674 3.65424 9.45809e-05 2.82235 9.45809e-05 23.0689C9.45809e-05 43.3154 -0.0233674 42.4835 0.668761 43.6552C1.36089 44.8386 2.69822 45.7994 4.01209 46.0337C4.41095 46.1157 8.95084 46.1391 16.5877 46.1274L28.5299 46.0923L28.8114 45.7642C29.1985 45.319 29.1985 44.6394 28.8114 44.1942L28.5299 43.8661L16.3414 43.8075C2.93284 43.7372 3.89478 43.7958 3.12054 43.0342C2.34629 42.2492 2.40495 43.5966 2.36976 26.373L2.34629 10.7663H27.6852H53.0125L53.0476 16.9176L53.0828 23.0689L53.4113 23.3852C53.8571 23.8305 54.5375 23.8305 54.9833 23.3852L55.3117 23.0689L55.3469 13.8478C55.3587 7.8957 55.3352 4.40411 55.2531 3.98231C54.9011 2.09591 53.2823 0.45557 51.3936 0.104069C50.6076 -0.0365334 4.64557 -0.0365334 3.89478 0.115784ZM51.4405 2.55287C52.0388 2.82235 52.5315 3.31445 52.8013 3.91201C52.989 4.31038 53.0242 4.69703 53.0242 6.39596V8.42295H27.6735H2.32283L2.36976 6.27879C2.40495 3.97059 2.45187 3.78312 3.13227 3.10355C3.30823 2.91608 3.6719 2.67003 3.92998 2.55287C4.37575 2.34196 5.34943 2.33025 27.6852 2.33025C50.021 2.33025 50.9947 2.34196 51.4405 2.55287Z" fill="black"/>
<path d="M6.51074 4.33371C5.64265 4.83753 5.65438 5.97405 6.55766 6.431C7.40229 6.86452 8.42289 5.88032 8.0475 4.98984C7.96538 4.77894 7.81288 4.54461 7.7073 4.46259C7.44922 4.25169 6.79228 4.18139 6.51074 4.33371Z" fill="black"/>
<path d="M10.7926 4.35723C10.3468 4.56813 10.0535 5.25942 10.206 5.68122C10.3937 6.17332 10.6635 6.41937 11.0858 6.50139C12.388 6.74744 12.9511 4.94306 11.7662 4.33379C11.4378 4.16976 11.1562 4.16976 10.7926 4.35723Z" fill="black"/>
<path d="M15.1918 4.31034C14.4762 4.60326 14.2533 5.57575 14.7695 6.12643C15.6962 7.11064 17.1978 6.07957 16.6347 4.84931C16.4001 4.33377 15.7431 4.08772 15.1918 4.31034Z" fill="black"/>
<path d="M23.4738 4.3689C22.6878 4.80242 22.7113 6.0444 23.5207 6.40762C23.7553 6.51307 26.7702 6.54822 35.8383 6.54822H47.8625L48.2379 6.20843C48.5547 5.92723 48.625 5.78663 48.625 5.37654C48.625 4.96646 48.5547 4.82586 48.2379 4.54466L47.8625 4.20487H35.8031C26.0311 4.21659 23.6967 4.24002 23.4738 4.3689Z" fill="black"/>
<path d="M5.67791 18.4993C5.34944 18.6282 5.04443 19.1203 5.04443 19.5304C5.04443 19.7179 5.2204 20.21 5.43156 20.6201C5.65445 21.0301 6.42869 22.5182 7.15601 23.9242C8.59892 26.701 8.77489 26.9119 9.5726 26.7596C10.1005 26.6659 10.3351 26.3261 11.3909 24.0999C11.8719 23.0806 12.2825 22.2487 12.3176 22.2487C12.3528 22.2487 12.869 23.1977 13.4673 24.3577C14.3236 25.998 14.6287 26.5019 14.8985 26.6425C15.3442 26.8768 15.5906 26.8651 16.0129 26.5956C16.3062 26.4198 16.6581 25.7989 17.9251 23.1626C19.6495 19.5655 19.7199 19.3078 19.1334 18.7219C18.7345 18.3236 18.1597 18.265 17.7256 18.5813C17.5497 18.6985 17.0452 19.6007 16.4235 20.8895L15.4029 22.9985L14.3236 20.9247C13.7254 19.7882 13.1036 18.7454 12.9394 18.6165C12.5757 18.3353 12.0009 18.3119 11.6255 18.5696C11.4613 18.6868 10.9451 19.6007 10.3351 20.8895L9.31451 22.9985L8.28219 21.0184C7.7191 19.917 7.09736 18.886 6.90966 18.6985C6.55773 18.3704 6.14715 18.3119 5.67791 18.4993Z" fill="black"/>
<path d="M20.9751 18.593C20.5997 18.8156 20.3534 19.4249 20.4824 19.8116C20.6466 20.374 23.7319 26.1855 24.0017 26.4667C24.3654 26.8299 25.0809 26.865 25.4681 26.5252C25.6088 26.3964 26.1719 25.377 26.6998 24.2639C27.2394 23.1625 27.7087 22.2486 27.7321 22.2486C27.7673 22.2486 28.2483 23.1508 28.8114 24.2522C29.961 26.4901 30.3012 26.8768 30.9464 26.7713C31.1693 26.7362 31.4626 26.619 31.5916 26.5018C31.8028 26.3143 33.1284 23.6781 34.454 20.7958C34.9467 19.7295 34.9819 19.6124 34.8646 19.214C34.6182 18.3938 33.5859 18.1126 33.0228 18.6985C32.8586 18.8859 32.2955 19.8936 31.7911 20.9481C31.2749 22.0026 30.8409 22.8813 30.8174 22.9048C30.7939 22.9282 30.2778 22.0026 29.6795 20.8426C28.565 18.6868 28.3304 18.3821 27.697 18.3821C27.0283 18.3821 26.8523 18.6164 25.7731 20.8309L24.729 22.9751L24.2011 22.0026C23.9078 21.4636 23.4151 20.5028 23.0867 19.8701C22.3359 18.4055 21.7845 18.0775 20.9751 18.593Z" fill="black"/>
<path d="M36.2372 18.7219C35.6389 19.3312 35.7093 19.5655 37.5628 23.1509C38.8884 25.7286 39.299 26.4198 39.5805 26.5956C40.0263 26.8651 40.2609 26.8768 40.7067 26.6425C40.9882 26.4901 41.2463 26.0566 42.0792 24.3577C42.6423 23.1977 43.135 22.2838 43.1819 22.3307C43.2288 22.3893 43.7098 23.268 44.2377 24.2991C45.317 26.4081 45.5164 26.6659 46.0443 26.7713C46.6895 26.8885 47.0883 26.5839 47.5576 25.6114C47.7805 25.1544 48.4961 23.6664 49.1413 22.3073C49.8569 20.8427 50.3261 19.7061 50.3261 19.4952C50.3144 18.9094 49.7395 18.3822 49.1178 18.3822C48.5547 18.3822 48.2145 18.8274 47.2056 20.9481L46.2085 23.0103L45.1527 20.9598C44.5779 19.835 43.9679 18.7922 43.8037 18.6399C43.3813 18.2767 42.7948 18.3001 42.3607 18.6985C42.1613 18.8977 41.6334 19.8467 41.0821 20.995L40.1436 22.9517L39.8503 22.4596C39.6978 22.1784 39.2168 21.2528 38.7828 20.4092C38.3488 19.5538 37.856 18.7454 37.6918 18.6165C37.246 18.265 36.6595 18.3119 36.2372 18.7219Z" fill="black"/>
<path d="M53.7867 26.4549C53.036 26.7713 52.8365 27.7438 53.4114 28.3062C53.8806 28.7866 54.5727 28.7631 55.0302 28.2476C55.4643 27.7555 55.476 27.2868 55.0537 26.8182C54.7018 26.4432 54.1739 26.2909 53.7867 26.4549Z" fill="black"/>
<path d="M40.8709 29.0327C40.4485 29.2904 40.3547 29.513 40.0614 31.0011L39.8385 32.0673L39.0174 32.4657C38.5716 32.6766 37.8443 33.0984 37.3985 33.4147L36.5773 33.9654L35.2635 33.567C33.8557 33.1452 33.4803 33.1335 33.1049 33.5436C32.9759 33.6725 32.1195 35.0785 31.1928 36.6603C29.046 40.3393 29.0695 40.1518 30.5593 41.5696L31.6268 42.5772L31.5565 43.4794C31.5213 43.9832 31.5213 44.8034 31.5565 45.2955L31.6268 46.2094L30.5593 47.217C29.0695 48.6348 29.046 48.4473 31.1928 52.1264C32.1195 53.7081 32.9759 55.1141 33.1049 55.243C33.4803 55.6531 33.8557 55.6414 35.2635 55.2196L36.5773 54.8212L37.3985 55.3719C37.8443 55.6882 38.5716 56.11 39.0174 56.3209L39.8385 56.7193L40.0497 57.7855C40.3312 59.1915 40.4955 59.5665 40.9295 59.7891C41.4574 60.0703 48.0502 60.0703 48.5781 59.7891C49.0122 59.5665 49.1647 59.2033 49.4462 57.7855L49.6691 56.6959L50.5372 56.2858C51.0182 56.0632 51.7455 55.6414 52.1678 55.3485L52.9186 54.8212L54.2677 55.2313C55.4994 55.6062 55.6519 55.6297 55.9921 55.4891C56.2033 55.3953 56.4262 55.2547 56.5083 55.161C56.5787 55.0673 57.3881 53.7081 58.3148 52.1264C60.4499 48.459 60.4264 48.623 58.9718 47.2639L57.9395 46.3148V44.3933V42.4718L58.9718 41.5227C60.4264 40.1636 60.4499 40.3276 58.3148 36.6603C57.3881 35.0785 56.5787 33.7194 56.5083 33.6256C56.4262 33.5319 56.2033 33.3913 55.9921 33.2975C55.6519 33.1569 55.4994 33.1804 54.2677 33.5553L52.9186 33.9654L52.1678 33.4382C51.7455 33.1452 51.0182 32.7234 50.5372 32.5008L49.6691 32.0907L49.4462 31.0011C49.3289 30.4152 49.1647 29.7591 49.0826 29.5482C48.801 28.8452 48.6133 28.81 44.7304 28.81C41.5043 28.81 41.2111 28.8335 40.8709 29.0327ZM47.3464 32.3485C47.4754 32.9695 47.6631 33.567 47.7452 33.6725C47.8391 33.7897 48.496 34.1529 49.2116 34.4809C49.9155 34.8207 50.9009 35.3948 51.3818 35.7581C52.4024 36.5314 52.5432 36.5548 53.904 36.133C54.4202 35.969 54.9011 35.8401 54.9715 35.8401C55.0536 35.8401 55.6285 36.7188 56.2502 37.7968L57.3881 39.7652L56.4731 40.6088L55.5581 41.4524L55.5463 44.3582L55.5346 47.2639L56.4614 48.1427L57.3881 49.0214L56.2502 50.9898C55.6285 52.0678 55.0536 52.9465 54.9715 52.9465C54.9011 52.9465 54.4202 52.8176 53.904 52.6536C52.5432 52.2318 52.4024 52.2552 51.3818 53.0285C50.9009 53.3918 49.9155 53.9659 49.2116 54.3057C48.496 54.6337 47.8391 54.997 47.7452 55.1141C47.6631 55.2196 47.4754 55.8171 47.3464 56.4381L47.1 57.5746L44.7421 57.6098L42.3959 57.6332L42.1847 56.5553C42.0674 55.9577 41.8915 55.3485 41.7976 55.1961C41.7038 55.0438 41.1172 54.6806 40.3782 54.3408C39.6978 54.0245 38.7006 53.4503 38.1727 53.0637C37.0583 52.2552 36.9527 52.2318 35.6036 52.6536C35.0875 52.8176 34.6065 52.9465 34.5244 52.9465C34.454 52.9465 33.8792 52.0678 33.2575 50.9898L32.1195 49.0331L33.0815 48.1075L34.0434 47.1936L33.9496 45.8813C33.844 44.2879 33.844 44.4988 33.9496 42.9053L34.0434 41.593L33.0815 40.6791L32.1195 39.7535L33.2575 37.7968C33.8792 36.7188 34.454 35.8401 34.5244 35.8401C34.6065 35.8401 35.0875 35.969 35.6036 36.133C36.9527 36.5548 37.0583 36.5314 38.1727 35.7229C38.7006 35.3363 39.6978 34.7621 40.3782 34.4458C41.1172 34.106 41.7038 33.7428 41.7976 33.5905C41.8915 33.4382 42.0674 32.8289 42.1847 32.2313L42.3959 31.1534L44.7421 31.1768L47.1 31.212L47.3464 32.3485Z" fill="black"/>
<path d="M43.1702 36.9063C41.0469 37.3164 38.8649 39.027 37.8912 41.054C37.4103 42.0616 37.0701 43.4325 37.0701 44.3933C37.0701 46.1274 37.8678 48.1543 39.0761 49.4666C40.6246 51.1656 42.5132 52.0092 44.7539 52.0092C46.0325 52.0092 46.8772 51.81 48.0972 51.2241C49.0005 50.7906 49.3759 50.5211 50.1032 49.7947C51.6634 48.2246 52.3673 46.5492 52.3673 44.3933C52.3673 42.2374 51.6634 40.5619 50.1032 38.9919C49.3759 38.2654 49.0005 37.9959 48.0972 37.5624C47.4872 37.2695 46.666 36.9649 46.2906 36.9063C45.4812 36.754 43.9327 36.754 43.1702 36.9063ZM46.1733 39.3082C48.7424 40.0581 50.3847 42.5772 49.9742 45.1783C49.5636 47.7794 47.3581 49.6658 44.7304 49.6658C41.5396 49.6658 39.0761 46.8069 39.5218 43.62C39.8034 41.6516 41.3167 39.9058 43.2758 39.3082C44.0031 39.0739 45.3991 39.0856 46.1733 39.3082Z" fill="black"/>
<path d="M5.68967 31.2822C4.54003 31.9501 5.10312 33.6842 6.3818 33.4498C7.64874 33.2155 7.60182 31.3877 6.32314 31.2002C6.11198 31.1768 5.81871 31.2119 5.68967 31.2822Z" fill="black"/>
<path d="M10.4993 31.2822C9.63118 31.7626 9.64291 32.9226 10.5227 33.3678C10.6987 33.4616 13.2209 33.4967 19.1685 33.4967H27.5679L27.9433 33.1569C28.4594 32.7 28.4829 32.0087 28.0019 31.5283L27.6852 31.2119L19.2037 31.1885C13.1622 31.1651 10.6635 31.2002 10.4993 31.2822Z" fill="black"/>
<path d="M5.68957 36.9063C5.00917 37.2929 4.83321 38.1482 5.32591 38.6872C5.47841 38.8512 5.73649 39.027 5.889 39.0621C6.02977 39.0973 9.36137 39.109 13.2795 39.0973L20.412 39.0621L20.7287 38.7458C21.1745 38.2888 21.1745 37.6093 20.7287 37.1523L20.412 36.836L13.1622 36.8125C8.02404 36.7891 5.8538 36.8242 5.68957 36.9063Z" fill="black"/>
</svg>
